PathFileType	4	(X/Y/Z)	S01_0007_Gait_markers.trc
DataRate	CameraRate	NumFrames	NumMarkers	Units	OrigDataRate	OrigDataStartFrame	OrigNumFrames
250.000000	250.000000	4	54	mm	250.000000	188	302
Frame#	Time	HEAD_ANT			R_HEAD			L_HEAD			C7			R_BACK			L_BACK			STERNUM			R_ACROMION			R_HUM_PROX			R_HUM_ANT			R_HUM_POST			R_ELBOW_LAT			R_ELBOW_MED			R_FOREARM			R_WIRST_LAT			R_WRITS_MED			R_HAND			L_ACROMION			L_HUM_PROX			L_HUM_ANT			L_HUM_POST			L_ELBOW_LAT			L_ELBOW_MED			L_FOREARM			L_WRIST_LAT			L_WIRST_MED			L_HAND			R_ILIAC			SACRUM			L_ILIAC			R_GTROCH			R_THIGH__1			R_THIGH_2			R_THIGH_3			R_THIGH_4			R_SHANK_1			R_SHANK_2			R_SHANK_3			R_SHANK_4			R_HEEL			R_FOOT_LAT			R_FOOT_MED			L_GTROCH			L_THIGH_1			L_THIGH_2			L_THIGH_3			L_THIGH_4			L_SHANK_1			L_SHANK_2			L_SHANK_3			L_SHANK_4			L_HEEL			L_FOOT_LAT			L_FOOT_MED			
		X1	Y1	Z1	X2	Y2	Z2	X3	Y3	Z3	X4	Y4	Z4	X5	Y5	Z5	X6	Y6	Z6	X7	Y7	Z7	X8	Y8	Z8	X9	Y9	Z9	X10	Y10	Z10	X11	Y11	Z11	X12	Y12	Z12	X13	Y13	Z13	X14	Y14	Z14	X15	Y15	Z15	X16	Y16	Z16	X17	Y17	Z17	X18	Y18	Z18	X19	Y19	Z19	X20	Y20	Z20	X21	Y21	Z21	X22	Y22	Z22	X23	Y23	Z23	X24	Y24	Z24	X25	Y25	Z25	X26	Y26	Z26	X27	Y27	Z27	X28	Y28	Z28	X29	Y29	Z29	X30	Y30	Z30	X31	Y31	Z31	X32	Y32	Z32	X33	Y33	Z33	X34	Y34	Z34	X35	Y35	Z35	X36	Y36	Z36	X37	Y37	Z37	X38	Y38	Z38	X39	Y39	Z39	X40	Y40	Z40	X41	Y41	Z41	X42	Y42	Z42	X43	Y43	Z43	X44	Y44	Z44	X45	Y45	Z45	X46	Y46	Z46	X47	Y47	Z47	X48	Y48	Z48	X49	Y49	Z49	X50	Y50	Z50	X51	Y51	Z51	X52	Y52	Z52	X53	Y53	Z53	X54	Y54	Z54	

189	0.752	1260.341552734375	1736.82470703125	-399.1113891601559	1202.499633789062	1687.133056640625	-319.7164611816402	1204.406982421875	1683.330322265625	-467.5085449218746	1070.077270507812	1512.64306640625	-385.1674194335934	998.0601196289062	1320.20263671875	-307.1161193847653	997.9466552734375	1316.345458984375	-446.5025939941403	1252.134643554688	1351.73876953125	-385.3113098144528	1154.6064453125	1467.164428710938	-213.2205505371091	1126.847534179688	1309.549682617188	-117.2207183837888	1186.008056640625	1221.836059570312	-124.4938354492185	1067.364990234375	1227.734008789062	-94.81484222412082	1112.6455078125	1118.732421875	-96.53893280029273	1075.04296875	1115.941528320312	-170.3293457031247	1221.368530273438	940.023681640625	-122.240280151367	1253.980224609375	877.3555297851562	-171.3975372314451	1195.303466796875	849.7245483398438	-121.343795776367	1270.605224609375	789.0986938476562	-119.2782287597655	1146.439697265625	1462.27685546875	-552.5566406249997	1110.250244140625	1295.74658203125	-642.5954589843747	1166.921020507812	1211.301025390625	-647.3719482421873	1044.261962890625	1222.600708007813	-663.3055419921873	1097.821044921875	1112.834716796875	-673.1335449218748	1043.734375	1111.622924804688	-613.5515136718748	1193.58740234375	933.8638305664064	-661.5541381835935	1232.070190429688	877.4310913085939	-613.1561889648435	1175.961059570312	850.9450073242189	-664.6077880859373	1255.57177734375	793.0013427734376	-659.053771972656	1141.253173828125	1058.963623046875	-204.552795410156	1022.03271484375	1032.225219726562	-380.7195129394529	1146.97900390625	1061.569702148438	-551.8914794921873	1087.180297851562	910.3207397460938	-196.3225708007811	1115.911743164062	634.3659057617188	-203.6541900634764	1171.796630859375	648.2523803710938	-191.1944732666014	1175.8662109375	543.1416625976562	-213.3864440917968	1111.297485351562	552.8861694335938	-216.5139312744139	987.0064086914062	402.7307739257813	-202.5461425781249	1007.595397949219	348.2237854003907	-217.629669189453	941.211669921875	296.1317138671876	-236.2453460693359	904.1996459960938	347.1435852050782	-224.9724731445312	735.6314086914062	259.0831298828126	-312.6681823730468	764.0568237304688	94.31986236572271	-240.3775634765625	809.2063598632812	64.4375305175782	-327.9989624023438	1131.644165039062	953.9017333984376	-559.5632324218748	1287.371215820312	683.8279418945314	-524.9515991210936	1233.858276367188	688.1334838867189	-549.7914428710936	1238.224975585938	587.3842773437501	-514.9629516601561	1298.002319335938	606.2299804687501	-498.3663330078124	1281.836547851562	325.8470458984376	-490.4780578613281	1224.953979492188	306.5133666992189	-500.7947692871093	1217.20068359375	220.9718780517579	-482.4261779785156	1279.145385742188	225.9998168945314	-464.9433898925781	1160.06103515625	40.3637580871583	-411.2635192871094	1340.718872070312	20.73843574523936	-469.8769836425781	1369.617065429688	27.20287895202645	-358.9847106933594	
190	0.756	1266.083251953125	1737.7978515625	-399.3544921874996	1208.10986328125	1688.282104492188	-319.9739379882809	1209.952392578125	1684.502319335938	-467.7224426269527	1075.519409179688	1513.69482421875	-385.4429321289059	1004.691345214844	1320.728759765625	-308.3756408691403	1003.506408691406	1317.328735351562	-447.2881164550778	1257.58349609375	1352.7685546875	-385.1864929199216	1159.778442382812	1468.373046875	-213.4754943847653	1132.0869140625	1310.71826171875	-117.4414978027341	1191.010620117188	1223.000244140625	-124.2313079833982	1072.95556640625	1228.870971679688	-94.73305511474582	1118.373657226562	1120.162353515625	-96.43110656738256	1080.392333984375	1116.841796875	-170.3442077636716	1225.879638671875	940.9490356445312	-121.723449707031	1258.1201171875	877.9625244140625	-170.9406280517576	1199.352416992188	850.6550903320312	-120.5604171752928	1274.575805664062	789.7854614257812	-118.4116287231444	1152.200805664062	1463.481811523438	-552.8230590820309	1116.57275390625	1296.942626953125	-642.7299194335934	1173.379272460938	1212.502685546875	-647.425598144531	1050.735107421875	1223.4404296875	-663.8925781249998	1104.361572265625	1114.231201171875	-673.4376831054685	1049.923828125	1112.816162109375	-614.1727905273435	1200.686645507812	935.2810058593751	-661.5306396484373	1239.274291992188	879.1300659179689	-612.839660644531	1183.187377929688	852.1173706054689	-664.4674072265623	1263.026489257812	794.7264404296876	-659.100646972656	1145.185424804688	1059.867309570312	-204.6063537597654	1027.582641601562	1033.38134765625	-381.1666564941404	1152.6044921875	1062.419799804688	-552.2670288085935	1093.123901367188	911.3887939453125	-196.5857543945311	1125.0888671875	635.1082763671875	-203.725143432617	1181.008056640625	649.9749145507812	-191.183380126953	1185.609008789062	544.513671875	-213.3233032226561	1121.074584960938	553.7772216796875	-216.2174987792968	997.076904296875	403.6270141601563	-202.842559814453	1018.031372070312	349.2581481933594	-217.5869140624999	951.8573608398438	296.9693603515626	-236.4678497314453	914.6431274414062	347.6871032714844	-225.4805297851562	745.976318359375	258.6187438964844	-313.6296997070312	777.2216796875	95.38655090332037	-238.9328155517578	822.861083984375	64.56813049316413	-325.9810791015625	1136.782470703125	954.9262695312501	-559.618713378906	1290.608276367188	683.4843750000001	-525.1954345703124	1236.171142578125	688.3052368164064	-549.3530273437499	1240.412109375	587.4815063476564	-515.1199951171874	1300.940185546875	605.7168579101564	-498.1839599609374	1282.646850585938	325.6581420898439	-490.6411132812499	1225.932861328125	306.5548095703126	-500.9409179687499	1217.904663085938	221.0467987060548	-482.5198364257812	1279.819702148438	225.8555145263673	-465.0143737792968	1160.1025390625	40.51302337646494	-411.2299194335938	1340.723754882812	20.66985130310069	-469.9371032714844	1369.645874023438	27.1676330566407	-359.009765625	
191	0.76	1271.621704101562	1738.879150390625	-399.5177307128902	1213.654541015625	1689.327514648438	-320.251068115234	1215.595092773438	1685.5458984375	-467.9300842285152	1080.997680664062	1514.9267578125	-385.8286743164059	1011.440490722656	1321.3212890625	-308.0591125488278	1009.23681640625	1318.43115234375	-447.7430114746091	1263.080810546875	1353.755249023438	-385.0140075683591	1164.974365234375	1469.541748046875	-213.7261199951169	1137.303588867188	1311.807250976562	-117.6158676147458	1196.414916992188	1224.189575195312	-125.1986541748044	1078.118530273438	1230.27685546875	-95.05053710937473	1123.405883789062	1121.464965820312	-96.50726318359349	1085.186889648438	1118.262451171875	-170.3554992675779	1230.325073242188	941.8750610351562	-121.2275619506834	1262.438720703125	878.6048583984375	-170.1925811767576	1203.547729492188	851.6239624023438	-119.682060241699	1278.50927734375	790.5654296875	-117.6010818481444	1157.896362304688	1464.554443359375	-553.0776977539059	1122.739624023438	1297.973266601563	-643.1489868164059	1179.672973632812	1213.68212890625	-647.4466552734373	1057.205322265625	1224.596801757813	-664.5421752929685	1111.269653320312	1115.228149414063	-673.9830932617185	1056.2919921875	1113.773803710938	-614.8881835937498	1207.882080078125	936.9934692382814	-660.954162597656	1246.42529296875	880.4885864257814	-612.776428222656	1190.339111328125	853.0510864257814	-664.2213134765623	1270.559814453125	796.3538208007814	-658.8349609374998	1150.699340820312	1060.952270507812	-204.7327880859373	1033.315795898438	1034.603881835938	-381.6605224609373	1158.416870117188	1063.410278320313	-552.727600097656	1099.090209960938	912.5301513671875	-196.8616943359373	1134.22314453125	636.0325927734375	-203.2308654785155	1190.1455078125	651.3386840820312	-190.8050842285155	1195.403076171875	546.0609741210938	-213.2155151367186	1130.7353515625	554.5806884765625	-216.0583038330077	1007.568542480469	404.7038879394532	-203.1472930908202	1028.548706054688	350.3117370605469	-217.6021728515624	962.4938354492188	297.5625610351563	-236.5981750488281	925.2064819335938	348.3298645019532	-225.6388702392577	756.4578857421875	257.7576293945313	-314.3977661132812	790.4683227539062	96.14858245849615	-237.5477600097656	836.7318725585938	64.6755676269532	-323.9300231933594	1141.823364257812	955.5872192382814	-559.878967285156	1293.746704101562	683.2828979492189	-525.5260009765624	1239.946655273438	689.2445068359376	-549.7943115234374	1243.938598632812	588.1433715820314	-515.1066894531249	1303.487670898438	605.5335083007814	-498.6098022460936	1283.739501953125	325.4714355468751	-490.6342773437499	1226.791870117188	306.633514404297	-500.9366149902343	1218.6572265625	221.2310180664064	-482.6370544433593	1280.579345703125	225.5915679931642	-465.0788269042968	1160.142578125	40.6065330505372	-411.20556640625	1340.765625	20.67220306396495	-470.0075073242188	1369.672485351562	27.15150260925301	-359.0140686035156	
192	0.764	1277.22314453125	1740.009033203125	-399.659027099609	1219.2705078125	1690.538818359375	-320.2413635253902	1221.229370117188	1686.632446289062	-468.2266845703121	1086.527221679688	1515.835327148438	-386.2453308105465	1017.161437988281	1322.034057617188	-308.7033691406247	1014.952514648438	1319.388427734375	-448.1454467773435	1268.557861328125	1355.036743164062	-385.0344543457028	1170.053588867188	1470.83544921875	-213.8319854736325	1142.395751953125	1313.14599609375	-118.0070343017575	1201.6171875	1225.547729492188	-125.4637832641599	1083.513427734375	1231.49365234375	-95.13121032714817	1128.354248046875	1122.883422851562	-96.49791717529271	1090.217529296875	1119.355346679688	-170.2128448486326	1234.739013671875	942.9873046875	-120.7141494750974	1266.758056640625	879.4481811523438	-169.1637420654295	1207.812133789062	852.7861328125	-118.7808303833006	1282.481323242188	791.2642211914062	-116.7728729248045	1163.658447265625	1465.863403320313	-553.2578124999997	1128.898315429688	1299.173706054688	-643.4400634765622	1185.957885742188	1214.92822265625	-647.312072753906	1063.68115234375	1225.675659179688	-665.1783447265623	1117.838989257812	1116.21728515625	-674.4008178710935	1062.583129882812	1114.84716796875	-615.4044799804685	1215.010009765625	938.3626098632814	-660.7885131835935	1253.453979492188	882.1576538085939	-612.6183471679685	1197.721923828125	854.4265747070314	-664.130920410156	1278.102661132812	797.9661865234376	-658.458312988281	1155.627563476562	1061.879150390625	-204.7604675292966	1038.800659179688	1035.835571289062	-381.9086608886716	1164.01025390625	1064.4541015625	-552.8507080078123	1105.03369140625	913.6104736328125	-197.1241455078123	1143.127807617188	637.0070190429688	-203.3407592773436	1199.033813476562	652.5814208984375	-191.0160064697264	1205.118530273438	547.3801879882812	-213.1236419677733	1140.404541015625	555.5477294921875	-215.7849121093749	1017.655944824219	405.4283447265626	-203.4848632812499	1039.146728515625	350.9634704589844	-217.7214813232421	973.4268798828125	297.9360046386719	-236.6738128662109	935.7459106445312	348.7113342285157	-226.2186889648437	767.1466674804688	256.7952880859376	-315.0083618164062	803.864990234375	96.67592620849615	-236.24072265625	850.8943481445312	64.91156005859382	-322.0659484863281	1147.06201171875	956.3540649414064	-560.1081542968748	1296.948974609375	683.0258789062501	-525.6357421874999	1243.435302734375	689.7802124023439	-549.8806152343749	1246.150756835938	588.1479492187501	-514.8760375976561	1305.773559570312	605.2764892578126	-498.7387390136718	1284.81884765625	325.2904052734376	-490.7082824707031	1227.700439453125	306.5917968750001	-500.9548034667968	1219.377197265625	221.2870330810548	-482.7790222167968	1281.27685546875	225.4483032226564	-465.0743103027343	1160.119750976562	40.98457717895517	-412.0267028808594	1340.730834960938	20.62503623962413	-470.0298156738281	1369.671997070312	27.14399719238289	-359.0041809082031	
